<?xml version="1.0" encoding="UTF-8" standalone="no"?>
<svg
	xmlns:dc="http://purl.org/dc/elements/1.1/"
	xmlns:cc="http://creativecommons.org/ns#"
	xmlns:rdf="http://www.w3.org/1999/02/22-rdf-syntax-ns#"
	xmlns:svg="http://www.w3.org/2000/svg"
	xmlns="http://www.w3.org/2000/svg"
	width="30px"
	height="30px"
	viewBox="0 0 30 30"
	version="1.1"
>
	<defs
		id="defs8" />
	<g
		transform="translate(0.4391698,1.4963135)"
		class="iconSVG">
		<path
			d="m 21.386507,4.290405 c 0.168354,-0.2559317 0.445584,-0.4354693 0.776511,-0.4368031 l 4.052428,2.782e-4 c 0.525379,0.00225 0.94954,0.4266164 0.95012,0.9505826 l -9.8e-4,4.053136 c -0.0015,0.3309264 -0.18046,0.608775 -0.438596,0.7777109 L 25.313534,8.2221667 22.470275,11.064044 19.978329,8.570887 22.821589,5.7290092 21.386512,4.2932334 z"
		/>
		<path
			d="m 7.7351534,22.716968 c -0.168354,0.255932 -0.445584,0.435469 -0.776511,0.436803 l -4.052428,-2.78e-4 c -0.525379,-0.0023 -0.94954,-0.426617 -0.95012,-0.950583 l 9.8e-4,-4.053135 c 0.0015,-0.330927 0.18046,-0.608775 0.438596,-0.777711 l 1.412456,1.413143 2.843259,-2.841877 2.491946,2.493157 -2.84326,2.841877 1.435077,1.435775 z"
		/>
		<path
			d="M 7.7351534,4.290405 C 7.5667994,4.0344733 7.2895694,3.8549357 6.9586424,3.8536019 l -4.052428,2.782e-4 c -0.525379,0.00225 -0.94954,0.4266164 -0.95012,0.9505826 l 9.8e-4,4.053136 c 0.0015,0.3309264 0.18046,0.608775 0.438596,0.7777109 l 1.412456,-1.4131429 2.843259,2.8418773 2.491946,-2.493157 -2.84326,-2.8418778 1.435077,-1.4357758 z"
		/>
		<path
			d="m 21.386507,22.716968 c 0.168354,0.255932 0.445584,0.435469 0.776511,0.436803 l 4.052428,-2.78e-4 c 0.525379,-0.0023 0.94954,-0.426617 0.95012,-0.950583 l -9.8e-4,-4.053135 C 27.163086,17.818848 26.984126,17.541 26.72599,17.372064 l -1.412456,1.413143 -2.843259,-2.841877 -2.491946,2.493157 2.84326,2.841877 -1.435077,1.435775 z"
		/>
	</g>
</svg>
