<svg xmlns="http://www.w3.org/2000/svg" width="30" height="30" viewBox="0 0 30 30">
	<path d="M21.826 5.787c.168-.256.445-.436.776-.437h4.053c.525.002.95.427.95.95v4.054c-.003.33-.182.61-.44.778l-1.412-1.414-2.844 2.842-2.493-2.493 2.844-2.842-1.434-1.435zM8.174 24.213c-.168.256-.445.436-.776.437H3.345c-.525-.002-.95-.427-.95-.95v-4.054c.003-.33.182-.61.44-.778l1.412 1.414L7.09 17.44l2.493 2.493-2.844 2.842 1.434 1.435zM8.174 5.787c-.168-.256-.445-.436-.776-.437H3.345c-.525.002-.95.427-.95.95v4.054c.003.33.182.61.44.778l1.412-1.414L7.09 12.56l2.493-2.493L6.74 7.225 8.173 5.79zM21.826 24.213c.168.256.445.436.776.437h4.053c.525-.002.95-.427.95-.95v-4.054c-.003-.33-.182-.61-.44-.778l-1.412 1.414-2.844-2.842-2.493 2.493 2.844 2.842-1.434 1.435z"/>
</svg>