<?xml version="1.0" encoding="UTF-8" standalone="no"?>
<svg
	xmlns:sketch="http://www.bohemiancoding.com/sketch/ns"
	xmlns:dc="http://purl.org/dc/elements/1.1/"
	xmlns:cc="http://creativecommons.org/ns#"
	xmlns:rdf="http://www.w3.org/1999/02/22-rdf-syntax-ns#"
	xmlns:svg="http://www.w3.org/2000/svg"
	xmlns="http://www.w3.org/2000/svg"
	version="1.1"
	width="30"
	height="30"
	viewBox="0 0 30 30"
>

	<defs
		id="defs8" />
	<g
		style="stroke:none;opacity:1"
		sketch:type="MSArtboardGroup"
		transform="matrix(0,-0.93229167,-1,0,28.843724,28.994446)"
		class="iconSVG">
		<g
			sketch:type="MSLayerGroup"
			transform="translate(3,6.2)"
			>
			<path
				d="m 3.78125,3.8125 0,3.21875 15.25,0 c 1.971428,0 3.625,-1.4607145 3.625,-3.21875 z m 0,4.8125 0,3.1875 11.84375,0 c 1.971428,0 3.59375,-1.429464 3.59375,-3.1875 z m 0,4.78125 0,3.1875 8.40625,0 c 1.97143,0 3.59375,-1.429465 3.59375,-3.1875 z m 0,4.8125 0,3.1875 4.96875,0 c 0.7813588,0 1.505956,-0.237759 2.09375,-0.625 l 0,-2.5625 z m 8,0 0,0.9375 c 1.566281,0 2.763122,0 4.28125,0 -0.215913,0.237542 -0.454866,0.529598 -0.71875,0.84375 -0.255896,0.314164 -0.532622,0.639873 -0.8125,1 -0.271889,0.360137 -0.563871,0.734223 -0.84375,1.125 -0.279884,0.390786 -0.548613,0.773134 -0.8125,1.15625 -0.255893,0.383122 -0.486849,0.757209 -0.71875,1.125 -0.223906,0.367797 -0.425822,0.724755 -0.59375,1.03125 l 0,0.71875 6.03125,0 0,-0.9375 -4.6875,0 c 0.199914,-0.344807 0.439602,-0.710629 0.6875,-1.09375 0.247893,-0.383117 0.509362,-0.773128 0.78125,-1.15625 0.279878,-0.390778 0.555868,-0.780788 0.84375,-1.15625 0.287875,-0.383115 0.57186,-0.72535 0.84375,-1.0625 0.27188,-0.344802 0.541345,-0.661649 0.78125,-0.9375 0.24789,-0.283502 0.441071,-0.519521 0.625,-0.71875 l 0,-0.875 c -1.895833,0 -3.791667,0 -5.6875,0 z m -8,4.78125 0,3.1875 1.8125,0 C 7.479464,26.027679 8.9375,24.678125 8.9375,23 z"
				transform="matrix(0,-1,-1.0726257,0,28.100188,22.643724)"
			/>
		</g>
	</g>
	<path
		class="iconSVG"
		style="font-size:11.74158858999999921px;font-style:normal;font-variant:normal;font-weight:normal;font-stretch:normal;line-height:125%;letter-spacing:0px;word-spacing:0px;fill-opacity:1;stroke:none;font-family:Ubuntu;-inkscape-font-specification:Ubuntu"
		d="m 17.618746,22.229173 2.962753,0 0,0.999941 -2.962753,0 0,-0.999941" />
	<path
		class="iconSVG"
		style="font-size:11.74158858999999921px;font-style:normal;font-variant:normal;font-weight:normal;font-stretch:normal;line-height:125%;letter-spacing:0px;word-spacing:0px;fill-opacity:1;stroke:none;font-family:Ubuntu;-inkscape-font-specification:Ubuntu"
		d="m 23.962013,25.401401 c 0.263885,1e-6 0.495787,-0.0038 0.695707,-0.01149 0.207908,-0.01532 0.379836,-0.03831 0.515782,-0.06896 l 0,-1.781505 c -0.07997,-0.03831 -0.211914,-0.06896 -0.395832,-0.09195 -0.175931,-0.03065 -0.391839,-0.04597 -0.647728,-0.04598 -0.167932,2e-6 -0.347856,0.01149 -0.539772,0.03448 -0.183926,0.02299 -0.355854,0.0728 -0.515784,0.149417 -0.151938,0.06896 -0.279883,0.168575 -0.383838,0.298833 -0.103958,0.1226 -0.155936,0.287342 -0.155934,0.494225 -2e-6,0.38312 0.127945,0.651303 0.383839,0.80455 0.25589,0.145585 0.603742,0.218379 1.04356,0.218378 m -0.09596,-5.356008 c 0.447808,6e-6 0.82365,0.05747 1.127525,0.172404 0.311864,0.107279 0.55976,0.264357 0.743687,0.471236 0.191914,0.199227 0.327857,0.440592 0.407829,0.724096 0.07996,0.275849 0.119944,0.582345 0.119949,0.919486 l 0,3.735413 c -0.09597,0.01533 -0.231907,0.03831 -0.407828,0.06896 -0.167934,0.02298 -0.359853,0.04598 -0.575757,0.06896 -0.215914,0.02298 -0.451815,0.04214 -0.707703,0.05747 -0.247899,0.02298 -0.495794,0.03448 -0.743687,0.03448 -0.351854,0 -0.675718,-0.03448 -0.97159,-0.103442 -0.295878,-0.06896 -0.55177,-0.176235 -0.767677,-0.321821 -0.215911,-0.153247 -0.38384,-0.352469 -0.503788,-0.597665 -0.11995,-0.245196 -0.179925,-0.540198 -0.179925,-0.885006 0,-0.329481 0.06798,-0.612988 0.203915,-0.850525 0.143939,-0.237531 0.335858,-0.429091 0.575758,-0.574679 0.239897,-0.145582 0.519779,-0.252855 0.839646,-0.32182 0.319862,-0.06896 0.655721,-0.103439 1.007575,-0.103443 0.11195,4e-6 0.227901,0.0076 0.347854,0.02298 0.119946,0.0076 0.231899,0.02299 0.335859,0.04598 0.111948,0.01533 0.207908,0.03065 0.287878,0.04598 0.07996,0.01533 0.135939,0.02682 0.167929,0.03449 l 0,-0.298833 c -4e-6,-0.176231 -0.01999,-0.348635 -0.05998,-0.517212 -0.03999,-0.17623 -0.111957,-0.329477 -0.215909,-0.459742 -0.103961,-0.137918 -0.247899,-0.245192 -0.431819,-0.321821 -0.175929,-0.08428 -0.407831,-0.126424 -0.695707,-0.126429 -0.367846,5e-6 -0.69171,0.02682 -0.97159,0.08045 -0.271888,0.04598 -0.475801,0.09578 -0.611742,0.149417 l -0.131945,-0.885007 c 0.143938,-0.0613 0.383837,-0.11876 0.719697,-0.172403 0.335856,-0.0613 0.699703,-0.09195 1.09154,-0.09195" />
</svg>
