<svg xmlns="http://www.w3.org/2000/svg" width="30" height="30" viewBox="0 0 30 30">
	<path d="M3.78 3.812v3.22h15.25c1.973 0 3.626-1.46 3.626-3.22zm0 4.813v3.187h11.845c1.97 0 3.594-1.43 3.594-3.187zm0 4.78v3.19h8.408c1.97 0 3.593-1.43 3.593-3.19zm0 4.814v3.186h4.97c.78 0 1.506-.238 2.094-.625v-2.56zm8 0v.936h4.283c-.216.238-.455.53-.72.844-.255.314-.532.64-.812 1-.27.36-.563.734-.842 1.125-.28.39-.55.773-.813 1.156-.256.384-.487.758-.72 1.126-.223.368-.425.725-.592 1.03v.72h6.03v-.937h-4.687c.2-.346.44-.712.688-1.095.248-.383.51-.773.78-1.156.28-.392.557-.782.845-1.158.287-.383.57-.725.843-1.062.27-.345.54-.662.78-.938.25-.283.442-.52.626-.718v-.875h-5.69zm-8 4.78v3.187h1.814c1.885-.16 3.344-1.51 3.344-3.187z"/>
	<path style="line-height:125%;-inkscape-font-specification:Ubuntu" d="M17.62 22.23h2.96v1h-2.96v-1M23.962 25.4c.264 0 .496-.002.696-.01.208-.015.38-.038.516-.07v-1.78c-.08-.04-.212-.07-.396-.093-.176-.03-.392-.045-.648-.045-.168 0-.348.01-.54.034-.184.023-.356.073-.516.15-.152.068-.28.168-.383.298-.103.123-.155.288-.155.494 0 .384.128.652.383.805.256.146.604.218 1.044.218m-.096-5.355c.448 0 .824.058 1.128.173.31.107.56.264.743.47.192.2.328.442.408.725.08.276.12.582.12.92v3.735c-.096.015-.232.038-.408.07-.168.022-.36.045-.576.068-.214.023-.45.042-.706.057-.248.023-.496.035-.744.035-.352 0-.676-.035-.972-.104-.295-.07-.55-.176-.767-.32-.215-.155-.383-.354-.503-.6-.12-.244-.18-.54-.18-.884 0-.33.068-.613.204-.85.145-.238.337-.43.577-.575.24-.146.52-.253.84-.322.32-.07.655-.104 1.007-.104.112 0 .228.007.348.022.12.008.232.023.336.046.112.016.208.03.288.046.08.016.136.027.168.035v-.3c0-.176-.02-.35-.06-.517-.04-.176-.112-.33-.216-.46-.104-.138-.248-.245-.432-.322-.176-.083-.408-.125-.696-.125-.368 0-.692.027-.972.08-.27.046-.475.096-.61.15l-.133-.885c.144-.062.384-.12.72-.173.335-.06.7-.092 1.09-.092" font-size="11.742" letter-spacing="0" word-spacing="0" font-family="Ubuntu"/>
</svg>