<?xml version="1.0" encoding="UTF-8" standalone="no"?>
<svg
	xmlns:dc="http://purl.org/dc/elements/1.1/"
	xmlns:cc="http://creativecommons.org/ns#"
	xmlns:rdf="http://www.w3.org/1999/02/22-rdf-syntax-ns#"
	xmlns:svg="http://www.w3.org/2000/svg"
	xmlns="http://www.w3.org/2000/svg"
	version="1.1"
	width="30"
	height="30"
	viewBox="0 0 30 30"
>
	<defs
		id="defs8"
	/>
	<g
		id="g3011"
		class="iconSVG"
		transform="translate(0.4391698,1.4963135)"
	>
		<path
			d="m 25.757388,10.627241 c -0.168354,0.255932 -0.445584,0.435469 -0.776511,0.436803 l -4.052428,-2.78e-4 c -0.525379,-0.0023 -0.94954,-0.426617 -0.95012,-0.950583 l 9.8e-4,-4.0531358 c 0.0015,-0.3309264 0.18046,-0.608775 0.438596,-0.7777109 l 1.412456,1.4131429 2.843259,-2.8418773 2.491946,2.493157 -2.84326,2.8418778 1.435077,1.4357763 z"
		/>
		<path
			d="m 3.3642724,16.380133 c 0.168354,-0.255932 0.445584,-0.435469 0.776511,-0.436803 l 4.052428,2.78e-4 c 0.525379,0.0023 0.94954,0.426617 0.95012,0.950583 l -9.8e-4,4.053135 c -0.0015,0.330927 -0.18046,0.608775 -0.438596,0.777711 l -1.412456,-1.413143 -2.843259,2.841877 -2.491946,-2.493157 2.84326,-2.841877 -1.435077,-1.435775 z"
		/>
		<path
			d="m 3.3642724,10.627241 c 0.168354,0.255932 0.445584,0.435469 0.776511,0.436803 l 4.052428,-2.78e-4 c 0.525379,-0.0023 0.94954,-0.426617 0.95012,-0.950583 l -9.8e-4,-4.0531358 c -0.0015,-0.3309264 -0.18046,-0.608775 -0.438596,-0.7777109 l -1.412456,1.4131429 -2.843259,-2.8418773 -2.491946,2.493157 2.84326,2.8418778 -1.435077,1.4357763 z"
		/>
		<path
			d="M 25.757388,16.380133 C 25.589034,16.124201 25.311804,15.944664 24.980877,15.94333 l -4.052428,2.78e-4 c -0.525379,0.0023 -0.94954,0.426617 -0.95012,0.950583 l 9.8e-4,4.053135 c 0.0015,0.330927 0.18046,0.608775 0.438596,0.777711 l 1.412456,-1.413143 2.843259,2.841877 2.491946,-2.493157 -2.84326,-2.841877 1.435077,-1.435775 z"
		/>
	</g>
</svg>
