<svg xmlns="http://www.w3.org/2000/svg" width="30" height="30" viewBox="0 0 30 30">
	<path d="M3.78 3.813V7.03H8.94c0-1.677-1.46-3.058-3.344-3.218H3.78zm9.19.03c-.29.575-.58 1.16-.845 1.75-.264.583-.54 1.2-.813 1.845-.165.404-.328.844-.5 1.28-.05.13-.104.245-.156.376l-1.03 2.72 1.187-.002.75-2v-.03h3.78c.13.344.256.693.376 1.03.12.33.238.656.374 1h1.28c-.32-.842-.625-1.63-.905-2.343-.28-.722-.542-1.39-.814-2.033-.264-.643-.548-1.26-.812-1.843-.264-.59-.525-1.176-.813-1.75h-1.06zm.5 1.282c.27.575.532 1.184.78 1.813.256.62.494 1.24.75 1.906h-3.094c.248-.667.502-1.286.75-1.906.256-.63.533-1.238.813-1.813zm-9.69 3.5v3.188h4.533L9.53 8.719c-.255-.05-.507-.095-.78-.095H3.78zm8.5 2.688l-.186.5h.25c0-.17-.036-.34-.063-.5zm-8.5 2.093v3.188h12c0-1.758-1.62-3.188-3.592-3.188H3.78zm0 4.813v3.186h15.44c0-1.758-1.624-3.187-3.595-3.187H3.78zm0 4.78v3.188h18.876c0-1.76-1.653-3.188-3.625-3.188H3.78z"/>
	<path style="line-height:125%;-inkscape-font-specification:Ubuntu" d="M17.767 7.87h2.963v1h-2.963v-1M26.137 6.64c-.168.175-.39.425-.67.746-.273.322-.57.678-.89 1.07-.31.39-.627.8-.947 1.23-.31.428-.587.838-.827 1.23h3.43v.895H21.47v-.71c.193-.338.43-.71.71-1.116.28-.406.57-.808.875-1.207.312-.406.61-.785.9-1.138.295-.36.55-.664.767-.91H21.64v-.895h4.497v.804" font-size="10.364" letter-spacing="0" word-spacing="0" font-family="Ubuntu"/>
</svg>