<?xml version="1.0" encoding="UTF-8" standalone="no"?>
<svg
	xmlns:dc="http://purl.org/dc/elements/1.1/"
	xmlns:cc="http://creativecommons.org/ns#"
	xmlns:rdf="http://www.w3.org/1999/02/22-rdf-syntax-ns#"
	xmlns:svg="http://www.w3.org/2000/svg"
	xmlns="http://www.w3.org/2000/svg"
	version="1.1"
	width="30"
	height="30"
	viewBox="0 0 30 30"
>
	<defs
		id="defs8" />
	<path
		class="iconSVG"
		style="stroke:none"
		d="M 3.78125 3.8125 L 3.78125 7.03125 L 8.9375 7.03125 C 8.9375 5.353125 7.479464 3.9723215 5.59375 3.8125 L 3.78125 3.8125 z M 12.96875 3.84375 C 12.680864 4.4184437 12.388891 5.0037455 12.125 5.59375 C 11.861106 6.1761045 11.584387 6.7938563 11.3125 7.4375 C 11.146602 7.8421372 10.983539 8.2817631 10.8125 8.71875 C 10.761986 8.8478083 10.707664 8.9626618 10.65625 9.09375 L 9.625 11.8125 L 10.8125 11.8125 L 11.5625 9.8125 L 11.5625 9.78125 L 15.34375 9.78125 C 15.471691 10.126064 15.598792 10.475351 15.71875 10.8125 C 15.838694 11.141988 15.9578 11.467688 16.09375 11.8125 L 17.375 11.8125 C 17.055123 10.969628 16.748628 10.181363 16.46875 9.46875 C 16.188857 8.7484795 15.928132 8.0811525 15.65625 7.4375 C 15.392352 6.7938563 15.107636 6.1761045 14.84375 5.59375 C 14.579852 5.0037455 14.319128 4.4184437 14.03125 3.84375 L 12.96875 3.84375 z M 13.46875 5.125 C 13.740635 5.6996925 14.002097 6.3091817 14.25 6.9375 C 14.505891 7.5581655 14.744099 8.1771174 15 8.84375 L 11.90625 8.84375 C 12.154146 8.1771174 12.408348 7.5581655 12.65625 6.9375 C 12.912142 6.3091817 13.188861 5.6996925 13.46875 5.125 z M 3.78125 8.625 L 3.78125 11.8125 L 8.3125 11.8125 L 9.53125 8.71875 C 9.2748464 8.6706018 9.0230664 8.625 8.75 8.625 L 3.78125 8.625 z M 12.28125 11.3125 L 12.09375 11.8125 L 12.34375 11.8125 C 12.34375 11.643817 12.308268 11.473856 12.28125 11.3125 z M 3.78125 13.40625 L 3.78125 16.59375 L 15.78125 16.59375 C 15.78125 14.835714 14.15893 13.40625 12.1875 13.40625 L 3.78125 13.40625 z M 3.78125 18.21875 L 3.78125 21.40625 L 19.21875 21.40625 C 19.21875 19.648214 17.596428 18.21875 15.625 18.21875 L 3.78125 18.21875 z M 3.78125 23 L 3.78125 26.1875 L 22.65625 26.1875 C 22.65625 24.429465 21.002678 23 19.03125 23 L 3.78125 23 z "
	/>
	<path
		class="iconSVG"
		style="font-size:10.36417198px;font-style:normal;font-variant:normal;font-weight:normal;font-stretch:normal;line-height:125%;letter-spacing:0px;word-spacing:0px;fill-opacity:1;stroke:none;font-family:Ubuntu;-inkscape-font-specification:Ubuntu"
		d="m 17.76689,7.8690834 2.96279,0 0,0.9999542 -2.96279,0 0,-0.9999542" />
	<path class="iconSVG"
		style="font-size:10.36417198px;font-style:normal;font-variant:normal;font-weight:normal;font-stretch:normal;line-height:125%;letter-spacing:0px;word-spacing:0px;fill-opacity:1;stroke:none;font-family:Ubuntu;-inkscape-font-specification:Ubuntu"
		d="M 26.13741,6.6392545 C 25.969473,6.8154966 25.745565,7.0645271 25.465684,7.3863467 25.19379,7.7081753 24.897912,8.0644805 24.578047,8.4552634 24.26617,8.8460532 23.950299,9.2559958 23.630433,9.6850923 23.318559,10.114193 23.042672,10.524136 22.802771,10.914922 l 3.430599,0 0,0.89651 -4.762055,0 0,-0.712612 c 0.191921,-0.337147 0.427825,-0.708777 0.707711,-1.1148908 0.279885,-0.4061094 0.571765,-0.8083895 0.875643,-1.2068413 0.31187,-0.4061084 0.611747,-0.785401 0.899633,-1.1378792 0.295875,-0.3601322 0.551771,-0.6628001 0.767686,-0.9080045 l -3.082742,0 0,-0.8965107 4.498164,0 0,0.804561" />
</svg>
