<svg xmlns="http://www.w3.org/2000/svg" width="30" height="30" viewBox="0 0 30 30">
	<path d="M26.197 12.124c-.17.255-.446.435-.777.436h-4.052c-.526-.002-.95-.427-.95-.95V7.555c.002-.33.18-.608.44-.777L22.27 8.19l2.843-2.842 2.492 2.493-2.844 2.842 1.437 1.436zM3.803 17.876c.17-.255.446-.435.777-.436h4.052c.526.002.95.427.95.95v4.054c-.002.33-.18.608-.44.777L7.73 21.81 4.887 24.65l-2.492-2.493 2.844-2.842-1.437-1.436zM3.803 12.124c.17.255.446.435.777.436h4.052c.526-.002.95-.427.95-.95V7.555c-.002-.33-.18-.608-.44-.777L7.73 8.19 4.887 5.35 2.395 7.843l2.844 2.842-1.437 1.436zM26.197 17.876c-.17-.255-.446-.435-.777-.436h-4.052c-.526.002-.95.427-.95.95v4.054c.002.33.18.608.44.777l1.412-1.412 2.843 2.842 2.492-2.493-2.844-2.842 1.437-1.436z"/>
</svg>